# xmcd
#
# Track frame offsets: 
#        150
#        12512
#        26297
#        40870
#        56185
#        67187
#        85481
#        98955
#        116360
#        130246
#        143681
#        165749
#        179866
#        192051
#        209579
#        219481
#        236362
#
# Disc length: 3331 seconds
#
# Revision: 0
# Processed by: cddbd v1.5.2PL0 Copyright (c) Steve Scherf et al.
# Submitted via: ExactAudioCopyFreeDBPlugin 1.0
#
DISCID=fa0d0111
DTITLE=Various Artist - The Show Pros
DYEAR=2009
DGENRE=Country
TTITLE0=Lloyd Green - Some Broken Hearts Never Mend
TTITLE1=Tommy White - Shuffle Off To Tupelo
TTITLE2=Jeff Surratt - That's How I Got To Memphis
TTITLE3=Steve Hinson - Fair And Tender Ladies
TTITLE4=Pat Severs - Two Dollars In The Jukebox
TTITLE5=Dan Dugmore - Blue Bayou (vocals by Aly Cutter)
TTITLE6=Russ Pahl - From Square One
TTITLE7=Robby Turner - Bitter They Are Harder They Fall
TTITLE8=Tommy White - That Girl Who Waits On Tables
TTITLE9=Jeff Whittington - Apartment Number 9
TTITLE10=Mike Johnson - The Lighthouse
TTITLE11=Pat Severs - Telstar
TTITLE12=Tommy White - Wichita Lineman
TTITLE13=Eddy Dunlap - Old Country
TTITLE14=Smith Curry - Showin' Off The Show Pro
TTITLE15=Jeff Surratt - Linda On My Mind (vocals by Jeff Bates)
TTITLE16=Duane Marrs - Sweet Dreams
EXTD=
EXTT0=
EXTT1=
EXTT2=
EXTT3=
EXTT4=
EXTT5=
EXTT6=
EXTT7=
EXTT8=
EXTT9=
EXTT10=
EXTT11=
EXTT12=
EXTT13=
EXTT14=
EXTT15=
EXTT16=
PLAYORDER=
